<svg xmlns="http://www.w3.org/2000/svg" viewBox="0 0 500 500"><g id="freepik--Character--inject-2"><g id="freepik--character--inject-2"><g id="freepik--Chair--inject-2"><path d="M241.35,364.21l-9.7-80.94-7.93-.4,13.63,81.33h0a1.09,1.09,0,0,0,.53.71,3.14,3.14,0,0,0,2.83.14,1,1,0,0,0,.62-.84Z" style="fill:#263238"></path><path d="M231.65,283.27l-7.93-.4,2.33,15.35a31.1,31.1,0,0,0,4.7-2.16,4.87,4.87,0,0,0,2.09-1.79Z" style="fill:#263238"></path><path d="M126.33,271.4h-7.94l-11.55,76.43h0a1,1,0,0,0,.58.87,3.14,3.14,0,0,0,2.83,0,1.05,1.05,0,0,0,.56-.68h0Z" style="fill:#37474f"></path><path d="M118.39,271.4l-3.22,21.33a31.53,31.53,0,0,0,6.09,3.73l5.07-25.06Z" style="fill:#263238"></path><path d="M188.32,391.34,180.86,309l-7.92-.4,11.39,82.69h0a1.09,1.09,0,0,0,.53.71,3.12,3.12,0,0,0,2.82.14,1,1,0,0,0,.62-.84Z" style="fill:#37474f"></path><path d="M181.84,320.89l-1-11.85-7.92-.4,1.61,12.78C176.31,322,179.53,321.63,181.84,320.89Z" style="fill:#263238"></path><path d="M169.64,246.22H161.7l-11.54,76.43h0a1,1,0,0,0,.57.87,3.14,3.14,0,0,0,2.83,0,1.08,1.08,0,0,0,.56-.68h0Z" style="fill:#263238"></path><g id="freepik--chair--inject-2"><path d="M103.48,183.75a44.93,44.93,0,0,0-3.17,13.93c-.9,10.68,2.71,45.26,4.88,60.73h0c3.14,25.84,7,25.89,12.59,30.21,9.63,7.44,37.33,22,46.47,25.63,16.58,6.52,30.14-3.54,40.24-8.53a234.43,234.43,0,0,0,26.77-15.85c2.52-1.84,3.83-3.7,3.8-5.65,0-.78,0-3.95,0-4.77,0-2.5-2.2-5.17-6.84-8.18-8.56-5.55-39.51-23.6-51.5-30.25a.12.12,0,0,0-.1-.09c-9.23-5.6-14.78-43.68-21.17-63.94-.13-.43-.27-.85-.41-1.26s-.23-.63-.33-.94c-.41-1.1-.82-2.11-1.26-3" style="fill:#F78525"></path><path d="M235.07,279.44c0-2.5-2.2-5.17-6.84-8.18-8.56-5.55-39.51-23.6-51.5-30.25a.12.12,0,0,0-.1-.09c-9.23-5.6-14.78-43.68-21.17-63.94a37.92,37.92,0,0,0-1.34-3.73c0-.09-.08-.18-.11-.27l-.37-.82-.18-.41h0a19.48,19.48,0,0,0-4.26-6.16,9.55,9.55,0,0,0-2.09-1.47c-1-.59-3.22-1.8-3.77-2.12-6.26-3.75-14.49.75-24.73,6.36-6.37,3.5-11.81,7.65-15.12,15.39h0a44.93,44.93,0,0,0-3.17,13.93c-.9,10.68,2.71,45.26,4.88,60.73h0c3.14,25.84,7,25.89,12.59,30.21,9.63,7.44,37.33,22,46.47,25.63,16.58,6.52,30.14-3.54,40.24-8.53a234.43,234.43,0,0,0,26.77-15.85c2.52-1.84,3.83-3.7,3.8-5.65C235.06,283.43,235.07,280.26,235.07,279.44Z" style="fill:#F78525"></path><path d="M235.07,279.44c0-2.5-2.2-5.17-6.84-8.18-8.56-5.55-39.51-23.6-51.5-30.25a.12.12,0,0,0-.1-.09c-9.23-5.6-14.78-43.68-21.17-63.94a37.92,37.92,0,0,0-1.34-3.73c0-.09-.08-.18-.11-.27l-.37-.82-.18-.41h0a19.48,19.48,0,0,0-4.26-6.16,9.55,9.55,0,0,0-2.09-1.47c-1-.59-3.22-1.8-3.77-2.12-6.26-3.75-14.49.75-24.73,6.36-6.37,3.5-11.81,7.65-15.12,15.39h0a44.93,44.93,0,0,0-3.17,13.93c-.9,10.68,2.71,45.26,4.88,60.73h0c3.14,25.84,7,25.89,12.59,30.21,9.63,7.44,37.33,22,46.47,25.63,16.58,6.52,30.14-3.54,40.24-8.53a234.43,234.43,0,0,0,26.77-15.85c2.52-1.84,3.83-3.7,3.8-5.65C235.06,283.43,235.07,280.26,235.07,279.44Z" style="fill:#fff;opacity:0.25"></path><path d="M204.49,300.91a235.71,235.71,0,0,0,26.77-15.86c5.74-4.17,5.21-8.44-3-13.79-11.44-7.42-58.09-33.89-58.09-33.89s-59,34.8-56.43,41.23,39,26.31,50.53,30.83C180.84,316,194.39,305.9,204.49,300.91Z" style="fill:#F78525"></path><path d="M204.49,300.91a235.71,235.71,0,0,0,26.77-15.86c5.74-4.17,5.21-8.44-3-13.79-11.44-7.42-58.09-33.89-58.09-33.89s-59,34.8-56.43,41.23,39,26.31,50.53,30.83C180.84,316,194.39,305.9,204.49,300.91Z" style="fill:#fff;opacity:0.6000000000000001"></path><path d="M147.1,164.12c-6.21-3.26-14.28,1.17-24.26,6.64-6.39,3.5-11.84,7.65-15.14,15.42l-4.22-2.43c3.31-7.74,8.75-11.89,15.12-15.39,10.24-5.61,18.47-10.11,24.73-6.36C143.88,162.32,146.06,163.53,147.1,164.12Z" style="fill:#F78525"></path><path d="M147.1,164.12c-6.21-3.26-14.28,1.17-24.26,6.64-6.39,3.5-11.84,7.65-15.14,15.42l-4.22-2.43c3.31-7.74,8.75-11.89,15.12-15.39,10.24-5.61,18.47-10.11,24.73-6.36C143.88,162.32,146.06,163.53,147.1,164.12Z" style="fill:#fff;opacity:0.5"></path><path d="M155.46,177c-.13-.43-2.27-7.86-6.27-11.39A10.14,10.14,0,0,0,142.4,163c-5.42,0-11.93,3.59-19.56,7.76-.63.35-1.26.71-1.88,1.08-.24.13-.48.27-.71.42s-.57.35-.85.53-.41.26-.61.4a36.41,36.41,0,0,0-3.85,2.92c-.19.17-.38.34-.57.53a26,26,0,0,0-2.18,2.26c-.13.14-.25.29-.37.43s-.3.36-.43.54l-.42.56c-.14.18-.27.36-.41.56a28,28,0,0,0-1.52,2.44c-.06.11-.13.22-.18.33s-.24.45-.36.69-.33.68-.49,1a43.74,43.74,0,0,0-3.46,14.6c-1.48,17.55,4.53,75.54,10.56,80.54,0,0-.92-5.68,11.21-13.31,8.25-5.19,14-9.55,22.85-13.87,21.45-10.54,27.46-12.51,27.46-12.51C167.4,235.32,161.85,197.24,155.46,177Z" style="fill:#F78525"></path><path d="M155.46,177c-.13-.43-2.27-7.86-6.27-11.39A10.14,10.14,0,0,0,142.4,163c-5.42,0-11.93,3.59-19.56,7.76-.63.35-1.26.71-1.88,1.08-.24.13-.48.27-.71.42s-.57.35-.85.53-.41.26-.61.4a36.41,36.41,0,0,0-3.85,2.92c-.19.17-.38.34-.57.53a26,26,0,0,0-2.18,2.26c-.13.14-.25.29-.37.43s-.3.36-.43.54l-.42.56c-.14.18-.27.36-.41.56a28,28,0,0,0-1.52,2.44c-.06.11-.13.22-.18.33s-.24.45-.36.69-.33.68-.49,1a43.74,43.74,0,0,0-3.46,14.6c-1.48,17.55,4.53,75.54,10.56,80.54,0,0-.92-5.68,11.21-13.31,8.25-5.19,14-9.55,22.85-13.87,21.45-10.54,27.46-12.51,27.46-12.51C167.4,235.32,161.85,197.24,155.46,177Z" style="fill:#fff;opacity:0.4"></path></g></g><path id="freepik--shadow--inject-2" d="M235.06,284.21c0,2-1.28,3.81-3.8,5.65a235,235,0,0,1-26.76,15.85c-5.26,2.6-11.45,6.56-18.51,8.84-16.92-9.91-46.16-27.26-53.34-33a24.83,24.83,0,0,1-8.19-13,58.77,58.77,0,0,1-1.38-18.22c-6.09-2.34-7.07-9.2-7.91-17.75-2.23-22.58-2.35-50.27,3.62-59.36.2-.14.4-.28.61-.41l.85-.52c.23-.15.46-.29.7-.42q.93-.56,1.89-1.08C130.47,166.59,137,163,142.4,163a10.25,10.25,0,0,1,6.37,2.22l.41.35a17.16,17.16,0,0,1,3.46,4.58c.14.25.27.51.4.76a.89.89,0,0,1,.08.17c.12.22.22.44.33.66l.12.25.07.15.18.42c.22.5.42,1,.59,1.41l.13.3c.13.36.25.68.35,1l.1.27.09.27c0,.07,0,.15.08.22l.07.22.08.26c0,.07,0,.13.05.18a2.51,2.51,0,0,1,.1.29c6.39,20.27,11.94,58.35,21.17,63.94a.13.13,0,0,1,.1.11c12,6.64,42.94,24.68,51.5,30.24,4.64,3,6.83,5.69,6.84,8.18C235.07,280.26,235.05,283.43,235.06,284.21Z" style="opacity:0.1"></path><g id="freepik--Bottom--inject-2"><path d="M215.63,344.71l.91,28s-2.77,5.94-9.28,6.43-7.55-6.05-7.55-6.05l-6-30.22Z" style="fill:#ffa8a7"></path><path d="M198.53,385.22a5.2,5.2,0,0,0,.22,2.66c.5,1.21,3.89,3.44,5.63,4.33s3.08,2.25,4.6,4.91c2.08,3.65,5.22,7.58,9.2,9.47a28.77,28.77,0,0,0,17,2c7.15-1.18,7.79-5.38,7.79-5.38s.43-3.95-1.33-4.6S198.53,385.22,198.53,385.22Z" style="fill:#263238"></path><path d="M197.62,380.33a11.48,11.48,0,0,0,.91,4.89c2.06,2.94,7,4,9.82,8s6.13,10.19,15.45,12.18,16.45-.88,18.21-3.52.22-5.16-5.72-8.48c-6.31-3.52-13.73-12.78-13.73-12.79-2.44-3.17-3.48-7.35-4.82-11.06-.14-.37-.35-.79-.73-.8s-.68.55-.92.94a3,3,0,0,1-1.8,1.11,23.2,23.2,0,0,1-2.47.7,22.94,22.94,0,0,1-5.09.55,2.1,2.1,0,0,0-1.6.42,1.83,1.83,0,0,0-.32,1.42,14.87,14.87,0,0,0,.24,1.88,1.91,1.91,0,0,1,0,.92,1.13,1.13,0,0,1-1.07.7,2.49,2.49,0,0,1-1.28-.41,5.66,5.66,0,0,1-3-3.84s-.35-1.74-.35-1.82a2.07,2.07,0,0,0-1,1.34c-.18.72-.12,1.49-.24,2.22A38.53,38.53,0,0,0,197.62,380.33Z" style="fill:#F78525"></path><path d="M197.62,380.33a11.48,11.48,0,0,0,.91,4.89c2.06,2.94,7,4,9.82,8s6.13,10.19,15.45,12.18,16.45-.88,18.21-3.52.22-5.16-5.72-8.48c-6.31-3.52-13.73-12.78-13.73-12.79-2.44-3.17-3.48-7.35-4.82-11.06-.14-.37-.35-.79-.73-.8s-.68.55-.92.94a3,3,0,0,1-1.8,1.11,23.2,23.2,0,0,1-2.47.7,22.94,22.94,0,0,1-5.09.55,2.1,2.1,0,0,0-1.6.42,1.83,1.83,0,0,0-.32,1.42,14.87,14.87,0,0,0,.24,1.88,1.91,1.91,0,0,1,0,.92,1.13,1.13,0,0,1-1.07.7,2.49,2.49,0,0,1-1.28-.41,5.66,5.66,0,0,1-3-3.84l-.35-1.82a2.07,2.07,0,0,0-1,1.34c-.18.72-.12,1.49-.24,2.22A38.53,38.53,0,0,0,197.62,380.33Z" style="opacity:0.30000000000000004"></path><path d="M255.73,319.89l4.17,39.31s-5.69,5.77-10.41,5.11a7,7,0,0,1-5.87-4.22L232,322.38Z" style="fill:#ffa8a7"></path><path d="M243.63,371.19a5.32,5.32,0,0,0,.51,2.62c.63,1.15,4.24,3,6.07,3.7s3.31,1.9,5.1,4.38c2.46,3.41,6,7,10.17,8.43a28.83,28.83,0,0,0,17.14.15c7-2,7.16-6.19,7.16-6.19s0-4-1.82-4.43S243.63,371.19,243.63,371.19Z" style="fill:#263238"></path><path d="M242.21,366.43a11.45,11.45,0,0,0,1.42,4.76c2.37,2.7,7.4,3.19,10.63,6.88s7.2,9.47,16.68,10.44,16.25-2.66,17.72-5.47-.33-5.15-6.6-7.81c-6.65-2.82-15-11.23-15-11.23-2.77-2.9-4.25-6.93-6-10.49-.17-.34-.43-.74-.81-.71s-.61.62-.81,1a3,3,0,0,1-1.67,1.29,21.14,21.14,0,0,1-2.38,1,22,22,0,0,1-5,1.1,2.1,2.1,0,0,0-1.55.59,1.9,1.9,0,0,0-.17,1.45,14.52,14.52,0,0,0,.45,1.84,1.92,1.92,0,0,1,.13.91,1.15,1.15,0,0,1-1,.82,2.47,2.47,0,0,1-1.32-.28c-1.63-.74-3.06-1.68-3.59-3.41,0,0-.27-.91-.55-1.75a1.71,1.71,0,0,0-.63,1.34c-.1.73,0,1.49,0,2.23A36.08,36.08,0,0,0,242.21,366.43Z" style="fill:#F78525"></path><path d="M242.21,366.43a11.45,11.45,0,0,0,1.42,4.76c2.37,2.7,7.4,3.19,10.63,6.88s7.2,9.47,16.68,10.44,16.25-2.66,17.72-5.47-.33-5.15-6.6-7.81c-6.65-2.82-15-11.23-15-11.23-2.77-2.9-4.25-6.93-6-10.49-.17-.34-.43-.74-.81-.71s-.61.62-.81,1a3,3,0,0,1-1.67,1.29,21.14,21.14,0,0,1-2.38,1,22,22,0,0,1-5,1.1,2.1,2.1,0,0,0-1.55.59,1.9,1.9,0,0,0-.17,1.45,14.52,14.52,0,0,0,.45,1.84,1.92,1.92,0,0,1,.13.91,1.15,1.15,0,0,1-1,.82,2.47,2.47,0,0,1-1.32-.28c-1.63-.74-3.06-1.68-3.59-3.41,0,0-.27-.91-.55-1.75a1.71,1.71,0,0,0-.63,1.34c-.1.73,0,1.49,0,2.23A36.08,36.08,0,0,0,242.21,366.43Z" style="opacity:0.30000000000000004"></path><path d="M127.29,240l22.94-2.52,44.43,2.4s26.68,17.06,46.05,30.68c5.63,4,11.59,8.3,12.58,16.59,1.4,11.77,5.19,53.52,5.19,53.52-3.88,4.29-13.79,6-19.87,4.87-1.86-4.82-6.4-19.67-8.56-26.29a123.33,123.33,0,0,1-4.59-21.52L197.21,280c6.22,6.33,8.26,8.39,11.52,11.68,2.86,2.89,4.75,6.53,5.59,15.89,1.67,18.56,1.79,44,2,49.69-2.34,3.27-11.81,7.58-19.31,3.81-2.56-9.94-3.71-14.8-5.93-24.06-4.28-17.9-2.75-23.87-3.6-27.74a305.66,305.66,0,0,1-30.06-17.37c-6.67-4.38-16-9.15-20.71-14.08C127.87,268.62,127.88,255.17,127.29,240Z" style="fill:#37474f"></path><path d="M197.21,280l-16-18.11s8.51-2.87,13-13.91c0,0-1,10.47-7.27,15.07l7.47,10.12,31,24.54Z" style="fill:#263238"></path><path d="M215.91,402c.28-4.48,4-9.15,11.09-10.66s10.76,1.6,12.43,2.83,6.34,5.49,2,9.07-9.51,3.85-14.91,3.12S217.4,403.75,215.91,402Z" style="fill:#fafafa"></path><path d="M262.69,386c-.06-4.49,3.63-10.39,10.56-12.42s10.54,1.16,12.29,2.26,6.74,5,2.71,8.9-9.2,4.5-14.66,4.58C269.93,389.33,264.3,387.61,262.69,386Z" style="fill:#fafafa"></path></g><g id="freepik--Top--inject-2"><g id="freepik--Arm--inject-2"><path d="M195,160.63c-4.28-4.25-10.17-8.1-14-8.55a32.89,32.89,0,0,0-9.65.11l14.83,33S207,202,217.32,209.26L220.63,186S202.19,167.81,195,160.63Z" style="fill:#ffa8a7"></path><path d="M188.26,154.26c-4.8-3.52-9.68-3.89-17.37-3l12.75,33.21,15.26,10.83s-.1-3.83,2.75-9.14a20.13,20.13,0,0,1,9.95-9.1S193.06,157.79,188.26,154.26Z" style="fill:#F78525"></path><path d="M188.26,154.26c-4.8-3.52-9.68-3.89-17.37-3l12.75,33.21,15.26,10.83s-.1-3.83,2.75-9.14a20.13,20.13,0,0,1,9.95-9.1S193.06,157.79,188.26,154.26Z" style="opacity:0.2"></path></g><path id="freepik--Chest--inject-2" d="M189.84,178.75c.7-17.6-9.54-26.16-19-27.47,0,0-3.86.54-7.61,1.26-7.39,1.41-23.18,6.08-29.79,9.81-5.63,3.17-6.17,6.9-7.16,16.15-.71,6.6-1.17,11.48-1,31.51.09,14.65,1.86,29.66,2.24,39.77,12.8,9,53.55,7.81,68.3-9.19-5.37-9.4-8.61-16.24-8.36-25.26C187.9,199.19,189.49,187.64,189.84,178.75Z" style="fill:#F78525"></path><g id="freepik--Head--inject-2"><path d="M193.15,105.57c0-.1,0-.2-.05-.3-.52-2.19-3,.17-4.41.08.18-.78,1-1.31,1.3-2a10.43,10.43,0,0,0,.86-3,11.18,11.18,0,0,0-.16-4.61c-1.25.46-2.39,1.18-3.66,1.63a17.56,17.56,0,0,1-6.36.88,123.55,123.55,0,0,1-14.23-1.3,31.38,31.38,0,0,0-9.43,0,17.44,17.44,0,0,0-7.66,3.21c-3,2.51-4,4.74-4.07,9.22-2.9,1.75-3.56,5.21-3.64,9.1-.1,4.81,2.36,9.23,4.33,13.48,0,0,5,10.79,6.16,12.91,1.36,2.45,2.56,4.51,2.56,4.51l-.82-9.09c3.3-.41,6,.51,9.09-.78a57.33,57.33,0,0,0,8.42-4.35,83.07,83.07,0,0,0,8.08-5.73,13.94,13.94,0,0,1,1.78-1.41c.48-.26.94-.26,1.35-.64.84-.79,1.1-2.27,1.53-3.29a13.92,13.92,0,0,1,.83-2.24c.38-.57,1.16-.81,1.75-1.16a8.48,8.48,0,0,0,3.83-4.62c.49-1.38.76-3.71-.2-5C191.44,109.44,193.45,107.72,193.15,105.57Z" style="fill:#455a64"></path><path d="M160.79,112.32c.1,2.84-1.38,9.18-5.87,11.55a19.89,19.89,0,0,1,.3,8,5.37,5.37,0,0,1-.66,2,2.34,2.34,0,0,1-1.64,1.13c-.93.1-1.33-.45-1.64-1.16a22.54,22.54,0,0,0-1.51-2.65,5.21,5.21,0,0,0-.86-1c-1.45-1.25-5.68-2.69-7.45,1.82-1.83,4.67,2.44,9.6,5.84,10.37,4.52,1,5.75-2.22,5.75-2.22l-2.39,19c1.8,4.8,11.76,11.43,19,10.23s3.44-7.2.89-10.59l1.35-6s6.5.5,10.32-.38c3-.7,5.35-3.6,6.43-8.22,2-8.81,1.2-21.17-.11-26.61s-2.6-6.31-3.62-7.54c-.32,1.61-2.14,3.58-6.94,4.58C171.1,116,165.31,114,160.79,112.32Z" style="fill:#ffa8a7"></path><path d="M171.86,152.73c-5.31-.83-10-2-12.87-3.81-2.12-1.31-3.8-5.06-4.29-6.38,0,0-.17,5,2.61,7.9,3.94,4.17,13.94,5,13.94,5Z" style="fill:#f28f8f"></path><path d="M168,121.64l-4.69,2.23a2.72,2.72,0,0,1,1.28-3.55A2.52,2.52,0,0,1,168,121.64Z" style="fill:#455a64"></path><path d="M168.63,140l6.66,2.46a3.49,3.49,0,0,1-4.51,2.23A3.72,3.72,0,0,1,168.63,140Z" style="fill:#b16668"></path><path d="M172.58,144.81a3.15,3.15,0,0,0-3.26-3,3,3,0,0,0-.8.15,3.63,3.63,0,0,0,2.26,2.69A3.38,3.38,0,0,0,172.58,144.81Z" style="fill:#f28f8f"></path><path d="M186.32,123.39l-4.45-2.47a2.46,2.46,0,0,1,3.39-1A2.58,2.58,0,0,1,186.32,123.39Z" style="fill:#455a64"></path><polygon points="175.21 138.51 182.19 136.22 174.3 123.39 175.21 138.51" style="fill:#f28f8f"></polygon><path d="M181.29,127.35a2,2,0,1,0,2-2A2,2,0,0,0,181.29,127.35Z" style="fill:#263238"></path><path d="M165.53,127.77a2,2,0,1,0,2.05-2A2.05,2.05,0,0,0,165.53,127.77Z" style="fill:#263238"></path></g></g><g id="freepik--Desk--inject-2"><polygon points="221.08 343.98 221.08 446.98 217.64 444.99 217.64 341.99 221.08 343.98" style="fill:#263238"></polygon><polygon points="221.08 343.98 221.08 446.98 224.52 444.99 224.52 341.99 221.08 343.98" style="fill:#37474f"></polygon><polygon points="123.8 287.72 123.8 390.72 120.36 388.73 120.36 285.73 123.8 287.72" style="fill:#263238"></polygon><polygon points="123.8 287.72 123.8 390.72 127.24 388.73 127.24 285.73 123.8 287.72" style="fill:#37474f"></polygon><polygon points="387.74 247.76 387.74 350.76 384.3 348.77 384.3 245.78 387.74 247.76" style="fill:#263238"></polygon><polygon points="387.74 247.76 387.74 350.76 391.18 348.77 391.18 245.78 387.74 247.76" style="fill:#37474f"></polygon><polygon points="221.08 337.85 221.08 350.11 120.36 291.86 120.36 279.6 221.08 337.85" style="fill:#37474f"></polygon><polygon points="221.08 350.11 391.19 251.91 391.19 239.65 221.08 337.85 221.08 350.11" style="fill:#455a64"></polygon><g id="freepik--desk--inject-2"><polygon points="221.63 335.56 116.35 274.77 289.83 174.94 395.12 235.73 221.63 335.56" style="fill:#F78525"></polygon><g style="opacity:0.8"><polygon points="221.63 335.56 116.35 274.77 289.83 174.94 395.12 235.73 221.63 335.56" style="fill:#fff"></polygon></g><polygon points="116.35 274.75 116.35 283.4 221.63 344.17 221.63 335.54 116.35 274.75" style="fill:#F78525"></polygon><g style="opacity:0.5"><polygon points="116.35 274.75 116.35 283.4 221.63 344.17 221.63 335.54 116.35 274.75" style="fill:#fff"></polygon></g><polygon points="221.63 344.17 395.12 244.43 395.12 235.71 221.63 335.54 221.63 344.17" style="fill:#F78525"></polygon><g style="opacity:0.65"><polygon points="221.63 344.17 395.12 244.43 395.12 235.71 221.63 335.54 221.63 344.17" style="fill:#fff"></polygon></g></g></g><path d="M220.63,186a49.47,49.47,0,0,0-1.24,14.57s-3.58-9.1-1.21-17Z" style="fill:#f28f8f"></path><path d="M256.69,128.31c.06-1-.69-1.24-1.48-1.2A5.82,5.82,0,0,0,252,128.4a37.86,37.86,0,0,0-3.88,4.13c-2,2.07-5.2,5.45-8,6.21-.58.15-1.82.3-1.27-.65a25.49,25.49,0,0,0,2-3.78,5.13,5.13,0,0,0,0-4.17,1.77,1.77,0,0,0-.91-.88c-.58-.2-.83.12-1.11.52a13.62,13.62,0,0,1-1,1.15c-.72.77-1.44,1.55-2.15,2.33-4.13,4.57-8.11,9.65-9.46,15.8-.2.89-.94,7.67-1.58,11.56-.41,3.49-4,25.38-4,25.38l-3.31,23.26c9.35,6.54,14.68,3.28,16.22.62,2.56-4.4,4.88-6.33,5.18-32.59.05-2.43,0-4.86.05-7.29a53.14,53.14,0,0,1,.77-9.32c.67-3.1,3.08-4.05,4.63-5.14a28.33,28.33,0,0,0,5.89-5.14,26,26,0,0,0,4-5.53,8,8,0,0,0,1.26-3.08,22.06,22.06,0,0,1-.33-2.74c.12-1.08.74-2.08.74-3.16a10.26,10.26,0,0,0-.61-2.47c-.35-1.31.2-2.31.84-3.42A3.93,3.93,0,0,0,256.69,128.31Z" style="fill:#ffa8a7"></path><path d="M237.78,142.29c-.16,3.55-2.22,8.17-3.76,9.81a11,11,0,0,0,3.58-4.43C238.63,144.87,238.35,143.52,237.78,142.29Z" style="fill:#f28f8f"></path><g id="freepik--Laptop--inject-2"><g id="freepik--laptop--inject-2"><path d="M298.7,249.86l-43.3-25a2.51,2.51,0,0,0-2.49,0l-75.13,43.39a.55.55,0,0,0,0,.95l43.71,25.25Z" style="opacity:0.2"></path><path d="M295.47,244.6v1a4,4,0,0,1-2,3.47l-70,40.4a4.06,4.06,0,0,1-4,0l-38.15-22a4,4,0,0,1-2-3.46v-1.35h0a.49.49,0,0,0,.25.44l41.89,24.2Z" style="fill:#37474f"></path><path d="M295.47,244.59l-41.49-24a2.38,2.38,0,0,0-2.39,0l-72,41.57a.53.53,0,0,0,0,.92l41.88,24.18Z" style="fill:#455a64"></path><polygon points="221.11 283.79 198.73 270.88 264.17 233.1 286.67 245.94 221.11 283.79" style="fill:#37474f"></polygon><polygon points="286.67 245.94 285.81 246.43 264.17 234.08 199.59 271.37 198.73 270.88 264.17 233.09 286.67 245.94" style="fill:#263238"></polygon><polygon points="210.11 247.88 210.52 248.12 221.49 254.45 241 243.19 241.4 242.96 230.02 236.38 210.11 247.88" style="fill:#263238"></polygon><polygon points="210.52 248.12 221.49 254.45 241 243.19 230.02 236.85 210.52 248.12" style="fill:#37474f"></polygon><path d="M221.49,287.31V290a4,4,0,0,0,2-.53l70-40.4a4,4,0,0,0,2-3.47v-1Z" style="fill:#263238"></path></g><g id="freepik--character--inject-2"><g id="freepik--arm--inject-2"><path d="M184,257.53s1,.51,2.57,1.14c1.44.56,2.72,1.7,6.14,2.81,4.06,1.31,9.3-.09,12.84-.23s9.53,1.6,12.8,3,7.28-3.62,8.92-3,4.52-.65,1.54-3.69-7.29-7.25-10.95-8.53a19.85,19.85,0,0,0-2.57-.84,28.72,28.72,0,0,0,3.79-.7,6.69,6.69,0,0,0,3.23-2.07c.32-.41.56-1.06.16-1.4a.91.91,0,0,0-.52-.2c-2.76-.12-4.92-.58-7.43-.8a10.3,10.3,0,0,0-3.37,0c-1,.26-2.06.55-3.08.88-4.59,1.51-10.77,1.41-14.23,1.34-1.42,0-4.75-.58-4.75-.58-.84-.08-1.69,1.22-3.25,4.56C183.32,254.49,184,257.53,184,257.53Z" style="fill:#ffa8a7"></path><path d="M213.74,246.21a12.44,12.44,0,0,0-5,.73,27.52,27.52,0,0,1,6.53,1.24,28.72,28.72,0,0,0,3.79-.7,7,7,0,0,0,2.93-1.73C220,247.07,216.12,246.48,213.74,246.21Z" style="fill:#f28f8f"></path></g><path d="M189.63,260.27c-4.46-2.31-26.79-4.93-35.14-7.18a138.22,138.22,0,0,1-14.75-4.74c-3.26-1.27-5.28-3.11-7.27-10.84S122,197.86,121.08,188.37s.08-14.48,3.45-18.9c2.47-3.24,9.1-6.47,9.1-6.47s7.91,3.95,10.76,15.34,2.7,17.63,2.7,17.63l8.07,34.61,17.41,7.28c8,3.32,14.91,6.54,18.47,7.1S189.63,260.27,189.63,260.27Z" style="fill:#ffa8a7"></path><path d="M133.9,162.12c-7.1,3.48-10.74,6.67-12.71,12.35s-.91,13.81.46,21,4.55,20.4,4.55,20.4,3.64,1.06,13.19-1.37,11.23-5.91,11.23-5.91l-2.81-14.19S147.9,167.59,133.9,162.12Z" style="fill:#F78525"></path><path d="M133.9,162.12c-7.1,3.48-10.74,6.67-12.71,12.35s-.91,13.81.46,21,4.55,20.4,4.55,20.4,3.64,1.06,13.19-1.37,11.23-5.91,11.23-5.91l-2.81-14.19S147.9,167.59,133.9,162.12Z" style="opacity:0.2"></path></g><path d="M222.62,287.9a4.73,4.73,0,0,0,4.08-.32l69.68-40.22a4.76,4.76,0,0,0,2.3-3.32l7.63-45.49a4.9,4.9,0,0,0,.06-.77,4.73,4.73,0,0,0-1.4-3.37l-72.41,41.81a3.53,3.53,0,0,0-1.7,2.45Z" style="fill:#37474f"></path><path d="M221.49,287.31l.48.27a4.9,4.9,0,0,0,.65.32l8.24-49.23a3.53,3.53,0,0,1,1.7-2.45L305,194.41a5,5,0,0,0-1-.74l-72.56,41.89a3.52,3.52,0,0,0-1.7,2.45Z" style="fill:#455a64"></path><path d="M231.53,237.15l-1.12-.65a3.43,3.43,0,0,0-.66,1.51l-8.26,49.3.48.27a4.9,4.9,0,0,0,.65.32l8.24-49.23A3.6,3.6,0,0,1,231.53,237.15Z" style="fill:#263238"></path><path d="M261.86,245.91c.51-3,3.65-7.09,7-9s5.69-1.05,5.18,2-3.66,7.09-7,9S261.35,249,261.86,245.91Z" style="fill:#F78525"></path></g></g></g><g id="freepik--Folder--inject-2"><g id="freepik--folder--inject-2"><path d="M265,64.22a.78.78,0,0,0-.31-.7h0l-2.06-1.19h0a.78.78,0,0,0-.78.08l-31.6,18.22-.85-2.84a1,1,0,0,0-.46-.61h0L226.87,76h0a1,1,0,0,0-1,0l-13.58,7.84a2.43,2.43,0,0,0-1.1,1.91V131a.78.78,0,0,0,.3.7h0l0,0h0l2.05,1.19h0a.81.81,0,0,0,.75-.09l49.57-28.62a2.44,2.44,0,0,0,1.11-1.91Z" style="fill:#F78525"></path><g style="opacity:0.5"><path d="M228.92,77.15a1,1,0,0,0-1,0L214.35,85a2.46,2.46,0,0,0-.78.82l-2.07-1.19a2.24,2.24,0,0,1,.78-.83L225.86,76a1,1,0,0,1,1,0h0Z" style="fill:#fff"></path><path d="M264.64,63.48a.85.85,0,0,0-.72.1L232,82a1,1,0,0,1-1.47-.59l-.25-.82,31.6-18.22a.9.9,0,0,1,.49-.15.57.57,0,0,1,.29.07h0Z" style="fill:#fff"></path></g><path d="M213.4,132.78l.11.12-2-1.16h0l0,0a.55.55,0,0,1-.19-.21.5.5,0,0,1,0-.13,1,1,0,0,1-.06-.36V85.74a.62.62,0,0,1,0-.13c0-.09,0-.18,0-.28l0-.13a3,3,0,0,1,.17-.41c0-.05,0-.09.07-.13l2.07,1.19a2.27,2.27,0,0,0-.32,1.09v45.28a1.36,1.36,0,0,0,0,.2.36.36,0,0,0,0,.1s0,0,0,.06l0,.07A.54.54,0,0,0,213.4,132.78Z" style="opacity:0.2"></path><path d="M248.75,92.76c0,6.82-4.14,14.73-9.26,17.69s-9.25-.19-9.25-7,4.14-14.73,9.25-17.68S248.75,86,248.75,92.76Z" style="fill:#fafafa"></path><path d="M244.54,92.43l-4.39-3.32-.1,0a1.75,1.75,0,0,0-.24-.11l-.19,0-.13,0a.53.53,0,0,0-.12,0,.4.4,0,0,0-.11,0,.19.19,0,0,0-.08,0,1.33,1.33,0,0,0-.24.11l-.15.1a1.24,1.24,0,0,0-.18.22s-.06.05-.08.09l-4.39,8.39a1.09,1.09,0,0,0,.46,1.47,1.13,1.13,0,0,0,.51.12,1.08,1.08,0,0,0,1-.58l2.34-4.47v11.84a1.09,1.09,0,0,0,2.17,0V92.16l2.65,2a1.09,1.09,0,1,0,1.31-1.73Z" style="fill:#F78525"></path></g></g><g id="freepik--Images--inject-2"><g id="freepik--images--inject-2"><path d="M291.88,80.47a53,53,0,0,0,4,33.26s25.63-6,38.86-4.8a45.73,45.73,0,0,1-3.39-31.73C321,74.71,300.86,75.35,291.88,80.47Z" style="fill:#f5f5f5"></path><path d="M297.41,110.72a51.37,51.37,0,0,1-3.22-28.51c7.8-3.76,23.82-4.68,34-3a48.94,48.94,0,0,0,2.52,27C319.19,106.22,303.12,109.48,297.41,110.72Z" style="fill:#F78525"></path><path d="M297.41,110.72a51.37,51.37,0,0,1-3.22-28.51c7.8-3.76,23.82-4.68,34-3a48.94,48.94,0,0,0,2.52,27C319.19,106.22,303.12,109.48,297.41,110.72Z" style="fill:#fff;opacity:0.7000000000000001"></path><path d="M317.11,84a2.56,2.56,0,0,0-3,1.85,2.34,2.34,0,0,0,2,2.74,2.54,2.54,0,0,0,3-1.85A2.34,2.34,0,0,0,317.11,84Z" style="fill:#fff;opacity:0.7000000000000001"></path><path d="M296,103.12l9.27-13,16.3,11.54L316.1,96l3.88-3.9,7.61,7.48a51.43,51.43,0,0,0,1.64,5.61c-10.83.28-24.76,3-31.19,4.37A45.37,45.37,0,0,1,296,103.12Z" style="fill:#fff;opacity:0.7000000000000001"></path><path d="M291.48,99.44a49.73,49.73,0,0,0,4.44,14.29s4.5-1,10.7-2.18a42.1,42.1,0,0,1-5.16-15A58.43,58.43,0,0,0,291.48,99.44Z" style="opacity:0.2"></path><path d="M264.24,114a53,53,0,0,0,16.83,29s21.2-15.59,33.82-19.74a45.73,45.73,0,0,1-15.64-27.82C288.7,97.25,270.46,105.77,264.24,114Z" style="fill:#f5f5f5"></path><path d="M281.25,139.63A51.49,51.49,0,0,1,267,114.7c5.69-6.52,20-13.7,30.09-16.17a49,49,0,0,0,12.94,23.78C299.49,126.9,286,136.24,281.25,139.63Z" style="fill:#F78525"></path><path d="M281.25,139.63A51.49,51.49,0,0,1,267,114.7c5.69-6.52,20-13.7,30.09-16.17a49,49,0,0,0,12.94,23.78C299.49,126.9,286,136.24,281.25,139.63Z" style="fill:#fff;opacity:0.7000000000000001"></path><path d="M288.81,107.3a2.57,2.57,0,0,0-2,2.88,2.34,2.34,0,0,0,2.92,1.72,2.53,2.53,0,0,0,2-2.88A2.34,2.34,0,0,0,288.81,107.3Z" style="fill:#fff;opacity:0.7000000000000001"></path><path d="M276.91,133.22l3.4-15.57,19.53,4.17-7.24-3.12,2-5.12,9.95,3.87a49.68,49.68,0,0,0,3.71,4.51c-9.84,4.53-21.56,12.52-26.94,16.32A45.7,45.7,0,0,1,276.91,133.22Z" style="fill:#fff;opacity:0.7000000000000001"></path></g></g><g id="freepik--Document--inject-2"><g id="freepik--document--inject-2"><path d="M334.55,181.08c-10.06,0-20-5.14-23.54-8.61A62.14,62.14,0,0,1,297.81,139c2.07.2,4.14.3,6.17.3,15.37,0,25.35-5.82,28-7.6,3.42,21.56,20.57,34.83,23.53,37-3.26,4.95-9,8.94-17,11.85-.39.15-.79.28-1.19.4A25.79,25.79,0,0,1,334.55,181.08Z" style="fill:#fafafa"></path><path d="M331.63,132.63c3.6,20.41,19.3,33.28,23.19,36.19-3.24,4.65-8.76,8.42-16.45,11.21-.37.14-.74.26-1.12.38a26.4,26.4,0,0,1-2.7.13c-9.86,0-19.59-5-23.11-8.41a61.65,61.65,0,0,1-13-32.51c1.87.16,3.74.24,5.57.24,14.57,0,24.15-5,27.65-7.23m.8-1.85s-10.36,8-28.45,8a64.16,64.16,0,0,1-6.76-.37,63,63,0,0,0,13.41,34.45c3.76,3.68,13.91,8.77,23.92,8.77a25.85,25.85,0,0,0,2.92-.16c.42-.12.85-.27,1.27-.42,6.65-2.41,13.7-6.31,17.56-12.5,0,0-20.49-13.71-23.87-37.77Z" style="fill:#e0e0e0"></path><path d="M330.61,137.4l3.61,10.82a20.19,20.19,0,0,1-10.64,5l-3.29-11.31A29.44,29.44,0,0,0,330.61,137.4Z" style="fill:#F78525"></path><path d="M330.61,137.4l3.61,10.82a20.19,20.19,0,0,1-10.64,5l-3.29-11.31A29.44,29.44,0,0,0,330.61,137.4Z" style="fill:#fff;opacity:0.7000000000000001"></path><path d="M304.12,144.27a68.09,68.09,0,0,0,14.52-1.42" style="fill:none;stroke:#e0e0e0;stroke-linecap:round;stroke-linejoin:round;stroke-width:0.812789px"></path><path d="M305.43,150A68.93,68.93,0,0,0,320,148.3" style="fill:none;stroke:#e0e0e0;stroke-linecap:round;stroke-linejoin:round;stroke-width:0.812789px"></path><path d="M307.54,155.7a68.46,68.46,0,0,0,14-1.93" style="fill:none;stroke:#e0e0e0;stroke-linecap:round;stroke-linejoin:round;stroke-width:0.812789px"></path><path d="M310.34,161.16c10.79-.72,19.56-3.13,25.66-7.77" style="fill:none;stroke:#e0e0e0;stroke-linecap:round;stroke-linejoin:round;stroke-width:0.812789px"></path><path d="M313.72,166.31c10.77-.95,19.48-3.55,25.49-8.33" style="fill:none;stroke:#e0e0e0;stroke-linecap:round;stroke-linejoin:round;stroke-width:0.812789px"></path><path d="M317.55,171.05c10.76-1.19,19.42-4,25.32-8.89" style="fill:none;stroke:#e0e0e0;stroke-linecap:round;stroke-linejoin:round;stroke-width:0.812789px"></path><path d="M321.73,175.26c10.74-1.41,19.34-4.4,25.14-9.43" style="fill:none;stroke:#e0e0e0;stroke-linecap:round;stroke-linejoin:round;stroke-width:0.812789px"></path><path d="M326.14,178.86c10.72-1.65,19.27-4.82,25-10" style="fill:none;stroke:#e0e0e0;stroke-linecap:round;stroke-linejoin:round;stroke-width:0.812789px"></path><path d="M337.47,181.47c-5.36.25-9-5-9.47-8.61-3.23,2-11.37,3.36-17.37,0C316,178.79,331.3,182.9,337.47,181.47Z" style="fill:#ebebeb"></path><path d="M330.37,138.75a35.41,35.41,0,0,1-9.05,4l.66,2.49s0-1.23.66-1.44c1.68-.55,3.24-1.18,3.24-1.18s1.67,4.93,1.89,6a1.85,1.85,0,0,1-1.28,2.32l.23.49a22,22,0,0,0,4.42-2.22l-.19-.39s-1.7.66-2.2-.61-1.93-6-1.93-6,2.26-1.13,2.8-1.44a1.33,1.33,0,0,1,1.75.53Z" style="fill:#fff;opacity:0.7000000000000001"></path></g></g><g id="freepik--Video--inject-2"><g id="freepik--video--inject-2"><path d="M401.88,153.81a53.64,53.64,0,0,0-20.37-27.09s-19.44,18.19-31.62,23.86a46.29,46.29,0,0,1,19,26.09C379.3,173.57,396.6,162.84,401.88,153.81Z" style="fill:#f5f5f5"></path><path d="M381.73,130.1A52,52,0,0,1,399,153.46c-4.94,7.23-18.51,16.15-28.3,19.82A49.53,49.53,0,0,0,354.84,151C364.92,145.07,377.35,134.08,381.73,130.1Z" style="fill:#F78525"></path><path d="M381.73,130.1A52,52,0,0,1,399,153.46c-4.94,7.23-18.51,16.15-28.3,19.82A49.53,49.53,0,0,0,354.84,151C364.92,145.07,377.35,134.08,381.73,130.1Z" style="fill:#fff;opacity:0.7000000000000001"></path><path d="M377.93,159.38a20.71,20.71,0,0,0-6.81-8.51,33.7,33.7,0,0,0,12-5.26S384.23,151.46,377.93,159.38Z" style="fill:#fff;opacity:0.7000000000000001"></path></g></g><g id="freepik--Cloud--inject-2"><g id="freepik--Line--inject-2"><path d="M310.07,229.88a.54.54,0,0,1-.49-.29.56.56,0,0,1,.21-.78l1.26-.73a.57.57,0,0,1,.57,1l-1.26.73A.6.6,0,0,1,310.07,229.88Z" style="fill:#455a64"></path><path d="M315.47,226.76a.54.54,0,0,1-.49-.29.55.55,0,0,1,.21-.77l2.48-1.44a.57.57,0,0,1,.57,1l-2.48,1.43A.6.6,0,0,1,315.47,226.76Zm6.61-3.82a.58.58,0,0,1-.49-.28.57.57,0,0,1,.21-.78l2.48-1.43a.57.57,0,1,1,.57,1l-2.48,1.43A.51.51,0,0,1,322.08,222.94Zm6.62-3.82a.57.57,0,0,1-.29-1.06l2.48-1.43a.57.57,0,0,1,.57,1L329,219.05A.58.58,0,0,1,328.7,219.12Zm6.61-3.81a.57.57,0,0,1-.28-1.07l2.48-1.43a.56.56,0,0,1,.78.21.58.58,0,0,1-.21.78l-2.48,1.43A.6.6,0,0,1,335.31,215.31Zm6.61-3.82a.59.59,0,0,1-.49-.29.57.57,0,0,1,.21-.78l2.48-1.43a.57.57,0,0,1,.57,1l-2.48,1.43A.6.6,0,0,1,341.92,211.49Zm6.62-3.82a.57.57,0,0,1-.5-.29.58.58,0,0,1,.21-.78l2.48-1.43a.57.57,0,0,1,.78.21.56.56,0,0,1-.21.78l-2.48,1.43A.6.6,0,0,1,348.54,207.67Zm6.61-3.82a.55.55,0,0,1-.49-.28.56.56,0,0,1,.21-.78l2.48-1.44a.57.57,0,0,1,.57,1l-2.49,1.43A.46.46,0,0,1,355.15,203.85Zm6.61-3.82a.57.57,0,0,1-.28-1.06l2.48-1.43a.57.57,0,1,1,.57,1L362.05,200A.59.59,0,0,1,361.76,200Zm6.62-3.82a.57.57,0,0,1-.29-1.06l2.48-1.43a.57.57,0,0,1,.57,1l-2.48,1.43A.58.58,0,0,1,368.38,196.21ZM375,192.4a.56.56,0,0,1-.49-.29.57.57,0,0,1,.2-.78l2.49-1.43a.56.56,0,0,1,.77.21.57.57,0,0,1-.2.78l-2.49,1.43A.54.54,0,0,1,375,192.4Zm6.61-3.82a.56.56,0,0,1-.49-.29.56.56,0,0,1,.21-.78l2.48-1.43a.57.57,0,0,1,.78.21.58.58,0,0,1-.21.78l-2.48,1.43A.6.6,0,0,1,381.6,188.58Zm6.62-3.82a.57.57,0,0,1-.5-.29.56.56,0,0,1,.21-.77l2.48-1.44a.58.58,0,0,1,.78.21.57.57,0,0,1-.21.78l-2.48,1.43A.5.5,0,0,1,388.22,184.76Zm6.61-3.82a.55.55,0,0,1-.49-.28.57.57,0,0,1,.2-.78l2.48-1.43a.57.57,0,1,1,.57,1l-2.48,1.44A.55.55,0,0,1,394.83,180.94Zm6.61-3.82a.57.57,0,0,1-.28-1.06l2.48-1.43a.56.56,0,0,1,.78.21.58.58,0,0,1-.21.78l-2.48,1.43A.59.59,0,0,1,401.44,177.12Z" style="fill:#455a64"></path><path d="M408.06,173.31a.59.59,0,0,1-.5-.29.57.57,0,0,1,.21-.78l1-.57v-1.13a.58.58,0,0,1,.57-.57.57.57,0,0,1,.57.57V172a.58.58,0,0,1-.28.5l-1.27.73A.6.6,0,0,1,408.06,173.31Z" style="fill:#455a64"></path><path d="M409.32,166a.57.57,0,0,1-.57-.57v-3a.57.57,0,0,1,.57-.57.56.56,0,0,1,.57.57v3A.56.56,0,0,1,409.32,166Zm0-8.11a.58.58,0,0,1-.57-.57v-3a.57.57,0,0,1,.57-.57.56.56,0,0,1,.57.57v3A.57.57,0,0,1,409.32,157.93Zm0-8.11a.58.58,0,0,1-.57-.57v-3a.58.58,0,0,1,.57-.58.57.57,0,0,1,.57.58v3A.57.57,0,0,1,409.32,149.82Zm0-8.11a.58.58,0,0,1-.57-.57v-3a.58.58,0,0,1,.57-.57.57.57,0,0,1,.57.57v3A.57.57,0,0,1,409.32,141.71Zm0-8.12a.57.57,0,0,1-.57-.57v-3a.58.58,0,0,1,.57-.57.57.57,0,0,1,.57.57v3A.56.56,0,0,1,409.32,133.59Zm0-8.11a.57.57,0,0,1-.57-.57v-3a.57.57,0,0,1,.57-.57.56.56,0,0,1,.57.57v3A.56.56,0,0,1,409.32,125.48Zm0-8.11a.58.58,0,0,1-.57-.57v-3a.57.57,0,0,1,.57-.57.56.56,0,0,1,.57.57v3A.57.57,0,0,1,409.32,117.37Z" style="fill:#455a64"></path><path d="M409.32,109.26a.58.58,0,0,1-.57-.57v-1.47a.58.58,0,0,1,.57-.57.57.57,0,0,1,.57.57v1.47A.57.57,0,0,1,409.32,109.26Z" style="fill:#455a64"></path></g><g id="freepik--cloud--inject-2"><g id="freepik--cloud--inject-2"><path d="M445.41,63.36h0l-.23-.13-.14-.09-5.15-3c0-.12,0-.24,0-.36,0-6.31-2.13-10.74-5.47-12.6h0l-9.89-5.71h0c-2.72-1.57-6.26-1.42-10.14.82a22.91,22.91,0,0,0-4.89,3.87,10.34,10.34,0,0,0-2.14-1.69h0L397.82,39h0c-3.5-2.32-8.18-2.27-13.34.7-10.82,6.25-19.6,23-19.6,37.45a29.79,29.79,0,0,0,.37,4.77l-1.36.78c-6.88,4-12.46,14.64-12.46,23.82h0c0,5.07,1.7,8.69,4.39,10.24h0l10,5.78h0c2.17,1.24,5,1.15,8.05-.63L392,111.45l48.3-27.88c4.14-2.39,7.49-8.79,7.49-14.3h0C447.8,66.39,446.87,64.33,445.41,63.36Z" style="fill:#F78525;opacity:0.8"></path><path d="M445.41,63.36h0l-.23-.13-.14-.09-5.15-3c0-.12,0-.24,0-.36,0-6.31-2.13-10.74-5.47-12.6h0l-9.89-5.71h0c-2.72-1.57-6.26-1.42-10.14.82a22.91,22.91,0,0,0-4.89,3.87,10.34,10.34,0,0,0-2.14-1.69h0L397.82,39h0c-3.5-2.32-8.18-2.27-13.34.7-10.82,6.25-19.6,23-19.6,37.45a29.79,29.79,0,0,0,.37,4.77l-1.36.78c-6.88,4-12.46,14.64-12.46,23.82h0c0,5.07,1.7,8.69,4.39,10.24h0l10,5.78h0c2.17,1.24,5,1.15,8.05-.63L392,111.45l48.3-27.88c4.14-2.39,7.49-8.79,7.49-14.3h0C447.8,66.39,446.87,64.33,445.41,63.36Z" style="fill:#fff;opacity:0.2"></path><path d="M434.43,47.2h0c-2.7-1.51-6.21-1.34-10,.88a23.22,23.22,0,0,0-5.13,4.12l-9.07-5.27-.89-.51.22-.23a23.61,23.61,0,0,1,4.89-3.88c3.88-2.23,7.42-2.38,10.14-.81h0Z" style="fill:#fff;opacity:0.35000000000000003"></path><path d="M409.52,46.19a9.32,9.32,0,0,1,.67.74l-.89-.51Z" style="fill:#fff;opacity:0.8"></path><path d="M407.14,44.36h0c-3.41-1.9-7.83-1.68-12.66,1.11s-9.4,7.84-12.84,13.8l-10-5.75c3.43-6,7.92-11,12.83-13.81,5.15-3,9.84-3,13.34-.7h0Z" style="fill:#fff;opacity:0.35000000000000003"></path><path d="M375.23,87.7l-1.35.77c-4.66,2.7-8.74,8.47-10.87,14.77l-10-5.76a30.26,30.26,0,0,1,8.11-12.77l4.11-2.77Z" style="fill:#fff;opacity:0.35000000000000003"></path><path d="M440.31,63.62l-.71.41a32,32,0,0,0,.3-4.23c0-11.42-6.95-16.67-15.51-11.72-4,2.29-7.6,6.38-10.34,11.24-.39-13.75-9-20-19.58-13.85-10.82,6.25-19.6,23-19.6,37.45a31.17,31.17,0,0,0,.36,4.78l-1.35.77c-6.88,4-12.47,14.65-12.47,23.83h0c0,9.18,5.59,13.6,12.47,9.62L392,111.45h0l48.3-27.88c4.14-2.39,7.49-8.79,7.49-14.3h0C447.8,63.77,444.45,61.23,440.31,63.62Z" style="fill:#F78525"></path><path d="M440.31,63.62l-.71.41a32,32,0,0,0,.3-4.23c0-11.42-6.95-16.67-15.51-11.72-4,2.29-7.6,6.38-10.34,11.24-.39-13.75-9-20-19.58-13.85-10.82,6.25-19.6,23-19.6,37.45a31.17,31.17,0,0,0,.36,4.78l-1.35.77c-6.88,4-12.47,14.65-12.47,23.83h0c0,9.18,5.59,13.6,12.47,9.62L392,111.45h0l48.3-27.88c4.14-2.39,7.49-8.79,7.49-14.3h0C447.8,63.77,444.45,61.23,440.31,63.62Z" style="fill:#fff;opacity:0.7000000000000001"></path><path d="M369,120.83c-3.07,0-5-3.35-5-8.53,0-8.22,5.12-18.11,11.19-21.61l1.35-.78a2.56,2.56,0,0,0,1.25-2.61h0a28,28,0,0,1-.33-4.38c0-13.6,8.21-29.4,18.32-35.24a13.15,13.15,0,0,1,6.5-2c5.46,0,9,5.25,9.24,13.71h0a2.55,2.55,0,0,0,4.78,1.18h0c2.63-4.65,6-8.3,9.4-10.28a9.86,9.86,0,0,1,4.88-1.52c4.13,0,6.79,4.33,6.79,11a29.38,29.38,0,0,1-.27,3.89h0a2.55,2.55,0,0,0,3.81,2.55l.71-.41a3.61,3.61,0,0,1,1.69-.55c1.36,0,2,2,2,4,0,4.61-2.84,10.14-6.2,12.09L372.6,119.71a7.3,7.3,0,0,1-3.58,1.12Z" style="fill:#fff;opacity:0.7000000000000001"></path></g></g></g></svg>